# xmcd
#
# Track frame offsets: 
#        150
#        19953
#        39227
#        60328
#        89740
#        107649
#        126296
#        148800
#        171177
#        191168
#        210256
#        229284
#        251974
#        274611
#        294754
#        313832
#
# Disc length: 4448 seconds
#
# Revision: 0
# Processed by: cddbd v1.5.2PL0 Copyright (c) Steve Scherf et al.
# Submitted via: ExactAudioCopyFreeDBPlugin 1.0
#
DISCID=ed115e10
DTITLE=群星 - stereo 情歌试音王NO3
DYEAR=2009
DGENRE=Acid
TTITLE0=爱情错觉(发烧女中音示范)
TTITLE1=故乡在他乡(最具人气发烧女声)
TTITLE2=放开手就让她走(新锐女声)
TTITLE3=爱上负心的人(动态人声测试)
TTITLE4=无路可退(最具质感女声)
TTITLE5=我把自己的爱弄丢了(最佳编曲乐器选配)
TTITLE6=这一生回忆有你就足够(最佳流行女声)
TTITLE7=爱情里没有谁对谁错(最具人气发烧女声)
TTITLE8=一定要爱你(最佳感情演绎)
TTITLE9=哭泣的玫瑰(新生代发烧女声)
TTITLE10=不是因为寂寞才想你(动态人声测试)
TTITLE11=谁是爱情里的主角(动态人声测试)
TTITLE12=高原蓝(人声混响最佳舒适度)
TTITLE13=听着情歌流眼泪(最佳感情演绎)
TTITLE14=假如爱能重来过(人声混响最佳舒适度)
TTITLE15=最后一次(最佳编曲乐器选配)
EXTD=
EXTT0=
EXTT1=
EXTT2=
EXTT3=
EXTT4=
EXTT5=
EXTT6=
EXTT7=
EXTT8=
EXTT9=
EXTT10=
EXTT11=
EXTT12=
EXTT13=
EXTT14=
EXTT15=
PLAYORDER=
